<mxfile host="app.diagrams.net" modified="2021-07-12T11:08:48.069Z" agent="5.0 (X11)" etag="OprnAzWRYElaOY4WCveG" version="14.8.5" type="github">
  <diagram id="C5RBs43oDa-KdzZeNtuy" name="Page-1">
    <mxGraphModel dx="1673" dy="847" grid="1" gridSize="10" guides="1" tooltips="1" connect="1" arrows="1" fold="1" page="1" pageScale="1" pageWidth="827" pageHeight="1169" math="0" shadow="0">
      <root>
        <mxCell id="WIyWlLk6GJQsqaUBKTNV-0" />
        <mxCell id="WIyWlLk6GJQsqaUBKTNV-1" parent="WIyWlLk6GJQsqaUBKTNV-0" />
        <mxCell id="WIyWlLk6GJQsqaUBKTNV-2" value="" style="rounded=0;html=1;jettySize=auto;orthogonalLoop=1;fontSize=11;endArrow=block;endFill=0;endSize=8;strokeWidth=1;shadow=0;labelBackgroundColor=none;edgeStyle=orthogonalEdgeStyle;entryX=0;entryY=0.5;entryDx=0;entryDy=0;" parent="WIyWlLk6GJQsqaUBKTNV-1" source="WIyWlLk6GJQsqaUBKTNV-3" target="WIyWlLk6GJQsqaUBKTNV-6" edge="1">
          <mxGeometry relative="1" as="geometry">
            <mxPoint x="220" y="160" as="targetPoint" />
            <Array as="points">
              <mxPoint x="230" y="100" />
              <mxPoint x="230" y="100" />
            </Array>
          </mxGeometry>
        </mxCell>
        <mxCell id="WIyWlLk6GJQsqaUBKTNV-3" value="Devs release a new tag" style="rounded=1;whiteSpace=wrap;html=1;fontSize=12;glass=0;strokeWidth=1;shadow=0;" parent="WIyWlLk6GJQsqaUBKTNV-1" vertex="1">
          <mxGeometry x="40" y="80" width="140" height="40" as="geometry" />
        </mxCell>
        <mxCell id="WIyWlLk6GJQsqaUBKTNV-4" value="Yes" style="rounded=0;html=1;jettySize=auto;orthogonalLoop=1;fontSize=11;endArrow=block;endFill=0;endSize=8;strokeWidth=1;shadow=0;labelBackgroundColor=none;edgeStyle=orthogonalEdgeStyle;entryX=0.5;entryY=0;entryDx=0;entryDy=0;" parent="WIyWlLk6GJQsqaUBKTNV-1" source="WIyWlLk6GJQsqaUBKTNV-6" target="WIyWlLk6GJQsqaUBKTNV-12" edge="1">
          <mxGeometry y="20" relative="1" as="geometry">
            <mxPoint as="offset" />
            <mxPoint x="285" y="210" as="targetPoint" />
          </mxGeometry>
        </mxCell>
        <mxCell id="WIyWlLk6GJQsqaUBKTNV-5" value="No" style="edgeStyle=orthogonalEdgeStyle;rounded=0;html=1;jettySize=auto;orthogonalLoop=1;fontSize=11;endArrow=block;endFill=0;endSize=8;strokeWidth=1;shadow=0;labelBackgroundColor=none;" parent="WIyWlLk6GJQsqaUBKTNV-1" source="WIyWlLk6GJQsqaUBKTNV-6" target="WIyWlLk6GJQsqaUBKTNV-7" edge="1">
          <mxGeometry y="10" relative="1" as="geometry">
            <mxPoint as="offset" />
          </mxGeometry>
        </mxCell>
        <mxCell id="WIyWlLk6GJQsqaUBKTNV-6" value="Need to change the helm chart template?" style="rhombus;whiteSpace=wrap;html=1;shadow=0;fontFamily=Helvetica;fontSize=12;align=center;strokeWidth=1;spacing=6;spacingTop=-4;" parent="WIyWlLk6GJQsqaUBKTNV-1" vertex="1">
          <mxGeometry x="220" y="35" width="130" height="130" as="geometry" />
        </mxCell>
        <mxCell id="pL0gPGD2MSd4G1JxEeV1-37" style="edgeStyle=orthogonalEdgeStyle;rounded=0;orthogonalLoop=1;jettySize=auto;html=1;entryX=0;entryY=0.5;entryDx=0;entryDy=0;" edge="1" parent="WIyWlLk6GJQsqaUBKTNV-1" source="WIyWlLk6GJQsqaUBKTNV-7" target="pL0gPGD2MSd4G1JxEeV1-35">
          <mxGeometry relative="1" as="geometry" />
        </mxCell>
        <mxCell id="WIyWlLk6GJQsqaUBKTNV-7" value="Raise a MR changing the version in the BoM" style="rounded=1;whiteSpace=wrap;html=1;fontSize=12;glass=0;strokeWidth=1;shadow=0;" parent="WIyWlLk6GJQsqaUBKTNV-1" vertex="1">
          <mxGeometry x="430" y="80" width="150" height="40" as="geometry" />
        </mxCell>
        <mxCell id="pL0gPGD2MSd4G1JxEeV1-54" value="" style="edgeStyle=orthogonalEdgeStyle;rounded=0;orthogonalLoop=1;jettySize=auto;html=1;" edge="1" parent="WIyWlLk6GJQsqaUBKTNV-1" source="WIyWlLk6GJQsqaUBKTNV-11" target="pL0gPGD2MSd4G1JxEeV1-8">
          <mxGeometry relative="1" as="geometry" />
        </mxCell>
        <mxCell id="WIyWlLk6GJQsqaUBKTNV-11" value="Generate inventories" style="rounded=1;whiteSpace=wrap;html=1;fontSize=12;glass=0;strokeWidth=1;shadow=0;" parent="WIyWlLk6GJQsqaUBKTNV-1" vertex="1">
          <mxGeometry x="625" y="220" width="120" height="40" as="geometry" />
        </mxCell>
        <mxCell id="pL0gPGD2MSd4G1JxEeV1-2" style="edgeStyle=orthogonalEdgeStyle;rounded=0;orthogonalLoop=1;jettySize=auto;html=1;exitX=1;exitY=0.5;exitDx=0;exitDy=0;" edge="1" parent="WIyWlLk6GJQsqaUBKTNV-1" source="WIyWlLk6GJQsqaUBKTNV-12" target="WIyWlLk6GJQsqaUBKTNV-7">
          <mxGeometry relative="1" as="geometry" />
        </mxCell>
        <mxCell id="WIyWlLk6GJQsqaUBKTNV-12" value="Change the template file on a feature branch" style="rounded=1;whiteSpace=wrap;html=1;fontSize=12;glass=0;strokeWidth=1;shadow=0;" parent="WIyWlLk6GJQsqaUBKTNV-1" vertex="1">
          <mxGeometry x="225" y="240" width="120" height="40" as="geometry" />
        </mxCell>
        <mxCell id="pL0gPGD2MSd4G1JxEeV1-5" value="" style="edgeStyle=orthogonalEdgeStyle;rounded=0;orthogonalLoop=1;jettySize=auto;html=1;" edge="1" parent="WIyWlLk6GJQsqaUBKTNV-1" source="pL0gPGD2MSd4G1JxEeV1-3" target="WIyWlLk6GJQsqaUBKTNV-11">
          <mxGeometry relative="1" as="geometry" />
        </mxCell>
        <mxCell id="pL0gPGD2MSd4G1JxEeV1-3" value="Pipeline start!" style="rounded=1;whiteSpace=wrap;html=1;fontSize=12;glass=0;strokeWidth=1;shadow=0;" vertex="1" parent="WIyWlLk6GJQsqaUBKTNV-1">
          <mxGeometry x="630" y="150" width="110" height="30" as="geometry" />
        </mxCell>
        <mxCell id="pL0gPGD2MSd4G1JxEeV1-12" value="" style="edgeStyle=orthogonalEdgeStyle;rounded=0;orthogonalLoop=1;jettySize=auto;html=1;" edge="1" parent="WIyWlLk6GJQsqaUBKTNV-1" source="pL0gPGD2MSd4G1JxEeV1-8" target="pL0gPGD2MSd4G1JxEeV1-11">
          <mxGeometry relative="1" as="geometry" />
        </mxCell>
        <mxCell id="pL0gPGD2MSd4G1JxEeV1-8" value="Get changed version from the master branch" style="rounded=1;whiteSpace=wrap;html=1;fontSize=12;glass=0;strokeWidth=1;shadow=0;" vertex="1" parent="WIyWlLk6GJQsqaUBKTNV-1">
          <mxGeometry x="625" y="300" width="120" height="50" as="geometry" />
        </mxCell>
        <mxCell id="pL0gPGD2MSd4G1JxEeV1-42" value="" style="edgeStyle=orthogonalEdgeStyle;rounded=0;orthogonalLoop=1;jettySize=auto;html=1;" edge="1" parent="WIyWlLk6GJQsqaUBKTNV-1" source="pL0gPGD2MSd4G1JxEeV1-10" target="pL0gPGD2MSd4G1JxEeV1-41">
          <mxGeometry relative="1" as="geometry" />
        </mxCell>
        <mxCell id="pL0gPGD2MSd4G1JxEeV1-10" value="Perform SL1 on the deployed stack" style="rounded=1;whiteSpace=wrap;html=1;fontSize=12;glass=0;strokeWidth=1;shadow=0;" vertex="1" parent="WIyWlLk6GJQsqaUBKTNV-1">
          <mxGeometry x="950" y="403.75" width="160" height="42.5" as="geometry" />
        </mxCell>
        <mxCell id="pL0gPGD2MSd4G1JxEeV1-16" value="" style="edgeStyle=orthogonalEdgeStyle;rounded=0;orthogonalLoop=1;jettySize=auto;html=1;" edge="1" parent="WIyWlLk6GJQsqaUBKTNV-1" source="pL0gPGD2MSd4G1JxEeV1-11" target="pL0gPGD2MSd4G1JxEeV1-15">
          <mxGeometry relative="1" as="geometry" />
        </mxCell>
        <mxCell id="pL0gPGD2MSd4G1JxEeV1-11" value="Apply current BoM to the gatekeeper cluster" style="rounded=1;whiteSpace=wrap;html=1;fontSize=12;glass=0;strokeWidth=1;shadow=0;" vertex="1" parent="WIyWlLk6GJQsqaUBKTNV-1">
          <mxGeometry x="625" y="400" width="120" height="50" as="geometry" />
        </mxCell>
        <mxCell id="pL0gPGD2MSd4G1JxEeV1-20" value="Yes" style="edgeStyle=orthogonalEdgeStyle;rounded=0;orthogonalLoop=1;jettySize=auto;html=1;" edge="1" parent="WIyWlLk6GJQsqaUBKTNV-1" source="pL0gPGD2MSd4G1JxEeV1-15" target="pL0gPGD2MSd4G1JxEeV1-10">
          <mxGeometry relative="1" as="geometry" />
        </mxCell>
        <mxCell id="pL0gPGD2MSd4G1JxEeV1-23" value="No" style="edgeStyle=orthogonalEdgeStyle;rounded=0;orthogonalLoop=1;jettySize=auto;html=1;" edge="1" parent="WIyWlLk6GJQsqaUBKTNV-1" source="pL0gPGD2MSd4G1JxEeV1-15" target="pL0gPGD2MSd4G1JxEeV1-22">
          <mxGeometry relative="1" as="geometry" />
        </mxCell>
        <mxCell id="pL0gPGD2MSd4G1JxEeV1-15" value="it worked?" style="rhombus;whiteSpace=wrap;html=1;shadow=0;fontFamily=Helvetica;fontSize=12;align=center;strokeWidth=1;spacing=6;spacingTop=-4;" vertex="1" parent="WIyWlLk6GJQsqaUBKTNV-1">
          <mxGeometry x="790" y="390" width="80" height="70" as="geometry" />
        </mxCell>
        <mxCell id="pL0gPGD2MSd4G1JxEeV1-31" value="" style="edgeStyle=orthogonalEdgeStyle;rounded=0;orthogonalLoop=1;jettySize=auto;html=1;" edge="1" parent="WIyWlLk6GJQsqaUBKTNV-1" source="pL0gPGD2MSd4G1JxEeV1-22" target="pL0gPGD2MSd4G1JxEeV1-30">
          <mxGeometry relative="1" as="geometry" />
        </mxCell>
        <mxCell id="pL0gPGD2MSd4G1JxEeV1-22" value="Cleanup to the previous version of the BoM" style="rounded=1;whiteSpace=wrap;html=1;fontSize=12;glass=0;strokeWidth=1;shadow=0;" vertex="1" parent="WIyWlLk6GJQsqaUBKTNV-1">
          <mxGeometry x="790" y="510" width="80" height="70" as="geometry" />
        </mxCell>
        <mxCell id="pL0gPGD2MSd4G1JxEeV1-27" value="Pipeline Failed" style="rounded=1;whiteSpace=wrap;html=1;fontSize=12;glass=0;strokeWidth=1;shadow=0;fillColor=#f8cecc;strokeColor=#b85450;" vertex="1" parent="WIyWlLk6GJQsqaUBKTNV-1">
          <mxGeometry x="1030" y="630" width="100" height="35" as="geometry" />
        </mxCell>
        <mxCell id="pL0gPGD2MSd4G1JxEeV1-28" value="Yes" style="edgeStyle=orthogonalEdgeStyle;rounded=0;orthogonalLoop=1;jettySize=auto;html=1;" edge="1" parent="WIyWlLk6GJQsqaUBKTNV-1" source="pL0gPGD2MSd4G1JxEeV1-30" target="pL0gPGD2MSd4G1JxEeV1-27">
          <mxGeometry relative="1" as="geometry" />
        </mxCell>
        <mxCell id="pL0gPGD2MSd4G1JxEeV1-29" value="No" style="edgeStyle=orthogonalEdgeStyle;rounded=0;orthogonalLoop=1;jettySize=auto;html=1;entryX=0.5;entryY=0;entryDx=0;entryDy=0;" edge="1" parent="WIyWlLk6GJQsqaUBKTNV-1" source="pL0gPGD2MSd4G1JxEeV1-30" target="pL0gPGD2MSd4G1JxEeV1-32">
          <mxGeometry relative="1" as="geometry">
            <mxPoint x="830" y="730" as="targetPoint" />
          </mxGeometry>
        </mxCell>
        <mxCell id="pL0gPGD2MSd4G1JxEeV1-30" value="it worked?" style="rhombus;whiteSpace=wrap;html=1;shadow=0;fontFamily=Helvetica;fontSize=12;align=center;strokeWidth=1;spacing=6;spacingTop=-4;" vertex="1" parent="WIyWlLk6GJQsqaUBKTNV-1">
          <mxGeometry x="790" y="610" width="80" height="70" as="geometry" />
        </mxCell>
        <mxCell id="pL0gPGD2MSd4G1JxEeV1-39" style="edgeStyle=orthogonalEdgeStyle;rounded=0;orthogonalLoop=1;jettySize=auto;html=1;entryX=0.5;entryY=1;entryDx=0;entryDy=0;" edge="1" parent="WIyWlLk6GJQsqaUBKTNV-1" source="pL0gPGD2MSd4G1JxEeV1-32" target="pL0gPGD2MSd4G1JxEeV1-27">
          <mxGeometry relative="1" as="geometry">
            <mxPoint x="1080" y="670" as="targetPoint" />
          </mxGeometry>
        </mxCell>
        <mxCell id="pL0gPGD2MSd4G1JxEeV1-32" value="Fresh install with BoM from the master branch" style="rounded=1;whiteSpace=wrap;html=1;fontSize=12;glass=0;strokeWidth=1;shadow=0;" vertex="1" parent="WIyWlLk6GJQsqaUBKTNV-1">
          <mxGeometry x="790" y="740" width="80" height="70" as="geometry" />
        </mxCell>
        <mxCell id="pL0gPGD2MSd4G1JxEeV1-38" value="" style="edgeStyle=orthogonalEdgeStyle;rounded=0;orthogonalLoop=1;jettySize=auto;html=1;" edge="1" parent="WIyWlLk6GJQsqaUBKTNV-1" source="pL0gPGD2MSd4G1JxEeV1-35" target="pL0gPGD2MSd4G1JxEeV1-3">
          <mxGeometry relative="1" as="geometry" />
        </mxCell>
        <mxCell id="pL0gPGD2MSd4G1JxEeV1-35" value="Waiting for available runners" style="rounded=1;whiteSpace=wrap;html=1;fontSize=12;glass=0;strokeWidth=1;shadow=0;" vertex="1" parent="WIyWlLk6GJQsqaUBKTNV-1">
          <mxGeometry x="610" y="80" width="150" height="40" as="geometry" />
        </mxCell>
        <mxCell id="pL0gPGD2MSd4G1JxEeV1-40" value="Yes" style="edgeStyle=orthogonalEdgeStyle;rounded=0;orthogonalLoop=1;jettySize=auto;html=1;entryX=0;entryY=0.5;entryDx=0;entryDy=0;" edge="1" parent="WIyWlLk6GJQsqaUBKTNV-1" source="pL0gPGD2MSd4G1JxEeV1-41" target="pL0gPGD2MSd4G1JxEeV1-46">
          <mxGeometry relative="1" as="geometry">
            <mxPoint x="1320" y="425" as="targetPoint" />
          </mxGeometry>
        </mxCell>
        <mxCell id="pL0gPGD2MSd4G1JxEeV1-43" style="edgeStyle=orthogonalEdgeStyle;rounded=0;orthogonalLoop=1;jettySize=auto;html=1;entryX=1;entryY=0.5;entryDx=0;entryDy=0;" edge="1" parent="WIyWlLk6GJQsqaUBKTNV-1" source="pL0gPGD2MSd4G1JxEeV1-41" target="pL0gPGD2MSd4G1JxEeV1-22">
          <mxGeometry relative="1" as="geometry">
            <Array as="points">
              <mxPoint x="1210" y="545" />
            </Array>
          </mxGeometry>
        </mxCell>
        <mxCell id="pL0gPGD2MSd4G1JxEeV1-44" value="No" style="edgeLabel;html=1;align=center;verticalAlign=middle;resizable=0;points=[];" vertex="1" connectable="0" parent="pL0gPGD2MSd4G1JxEeV1-43">
          <mxGeometry x="-0.8431" y="-1" relative="1" as="geometry">
            <mxPoint as="offset" />
          </mxGeometry>
        </mxCell>
        <mxCell id="pL0gPGD2MSd4G1JxEeV1-41" value="it worked?" style="rhombus;whiteSpace=wrap;html=1;shadow=0;fontFamily=Helvetica;fontSize=12;align=center;strokeWidth=1;spacing=6;spacingTop=-4;" vertex="1" parent="WIyWlLk6GJQsqaUBKTNV-1">
          <mxGeometry x="1170" y="390" width="80" height="70" as="geometry" />
        </mxCell>
        <mxCell id="pL0gPGD2MSd4G1JxEeV1-48" value="No" style="edgeStyle=orthogonalEdgeStyle;rounded=0;orthogonalLoop=1;jettySize=auto;html=1;" edge="1" parent="WIyWlLk6GJQsqaUBKTNV-1" source="pL0gPGD2MSd4G1JxEeV1-46" target="pL0gPGD2MSd4G1JxEeV1-47">
          <mxGeometry relative="1" as="geometry" />
        </mxCell>
        <mxCell id="pL0gPGD2MSd4G1JxEeV1-50" value="Yes" style="edgeStyle=orthogonalEdgeStyle;rounded=0;orthogonalLoop=1;jettySize=auto;html=1;" edge="1" parent="WIyWlLk6GJQsqaUBKTNV-1" source="pL0gPGD2MSd4G1JxEeV1-46" target="pL0gPGD2MSd4G1JxEeV1-49">
          <mxGeometry relative="1" as="geometry" />
        </mxCell>
        <mxCell id="pL0gPGD2MSd4G1JxEeV1-46" value="Is a unrollbackable component?" style="rhombus;whiteSpace=wrap;html=1;shadow=0;fontFamily=Helvetica;fontSize=12;align=center;strokeWidth=1;spacing=6;spacingTop=-4;" vertex="1" parent="WIyWlLk6GJQsqaUBKTNV-1">
          <mxGeometry x="1330" y="360" width="140" height="130" as="geometry" />
        </mxCell>
        <mxCell id="pL0gPGD2MSd4G1JxEeV1-53" value="" style="edgeStyle=orthogonalEdgeStyle;rounded=0;orthogonalLoop=1;jettySize=auto;html=1;" edge="1" parent="WIyWlLk6GJQsqaUBKTNV-1" source="pL0gPGD2MSd4G1JxEeV1-47" target="pL0gPGD2MSd4G1JxEeV1-51">
          <mxGeometry relative="1" as="geometry" />
        </mxCell>
        <mxCell id="pL0gPGD2MSd4G1JxEeV1-47" value="Cleanup to the previous version of the BoM" style="rounded=1;whiteSpace=wrap;html=1;fontSize=12;glass=0;strokeWidth=1;shadow=0;" vertex="1" parent="WIyWlLk6GJQsqaUBKTNV-1">
          <mxGeometry x="1530" y="398.75" width="100" height="52.5" as="geometry" />
        </mxCell>
        <mxCell id="pL0gPGD2MSd4G1JxEeV1-52" value="" style="edgeStyle=orthogonalEdgeStyle;rounded=0;orthogonalLoop=1;jettySize=auto;html=1;" edge="1" parent="WIyWlLk6GJQsqaUBKTNV-1" source="pL0gPGD2MSd4G1JxEeV1-49" target="pL0gPGD2MSd4G1JxEeV1-51">
          <mxGeometry relative="1" as="geometry" />
        </mxCell>
        <mxCell id="pL0gPGD2MSd4G1JxEeV1-49" value="Fresh install with BoM from the master branch" style="rounded=1;whiteSpace=wrap;html=1;fontSize=12;glass=0;strokeWidth=1;shadow=0;" vertex="1" parent="WIyWlLk6GJQsqaUBKTNV-1">
          <mxGeometry x="1350" y="550" width="100" height="52.5" as="geometry" />
        </mxCell>
        <mxCell id="pL0gPGD2MSd4G1JxEeV1-51" value="Pipeline Succeded" style="rounded=1;whiteSpace=wrap;html=1;fontSize=12;glass=0;strokeWidth=1;shadow=0;fillColor=#d5e8d4;strokeColor=#82b366;" vertex="1" parent="WIyWlLk6GJQsqaUBKTNV-1">
          <mxGeometry x="1530" y="550" width="100" height="52.5" as="geometry" />
        </mxCell>
      </root>
    </mxGraphModel>
  </diagram>
</mxfile>
